<svg version="1.0" id="katman_1" xmlns="http://www.w3.org/2000/svg" xmlns:xlink="http://www.w3.org/1999/xlink" x="0px" y="0px" viewBox="0 0 566 386" style="enable-background:new 0 0 566 386;" xml:space="preserve">
<style type="text/css">
	.st0{clip-path:url(#SVGID_2_);fill:#201D1E;}
	.st1{clip-path:url(#SVGID_2_);fill:#2762AE;}
	.st2{clip-path:url(#SVGID_2_);fill:#FEDA01;}
</style><script xmlns="" id="bw-fido2-page-script"/>
<g>
	<defs>
		<rect id="SVGID_1_" x="33" y="-57" width="500" height="500"/>
	</defs>
	<clipPath id="SVGID_2_">
		<use xlink:href="#SVGID_1_" style="overflow:visible;"/>
	</clipPath>
	<path class="st0" d="M282.62,287.56c0.01,4.35-3.13,7.78-7.11,7.78c-3.98,0.01-7.13-3.42-7.13-7.77c0-4.35,3.13-7.78,7.11-7.78   C279.49,279.79,282.62,283.2,282.62,287.56 M275.51,281.51c-3.07,0-5.48,2.67-5.48,6.07c0,3.38,2.4,6.05,5.45,6.06   c3.07,0.01,5.51-2.67,5.52-6.05C281.02,284.22,278.57,281.51,275.51,281.51"/>
	<path class="st0" d="M302.5,287.58c-0.02,4.38-3.16,7.79-7.17,7.77c-3.98-0.02-7.1-3.48-7.07-7.83c0.02-4.35,3.18-7.74,7.17-7.72   C299.4,279.82,302.51,283.25,302.5,287.58 M295.41,281.51c-3.07-0.02-5.49,2.64-5.5,6.04c-0.01,3.38,2.39,6.07,5.42,6.08   c3.09,0.01,5.55-2.69,5.54-6.07C300.86,284.2,298.45,281.52,295.41,281.51"/>
	<path class="st0" d="M245.52,295.07c-0.47,0-0.91-0.02-1.35,0.01c-0.31,0.02-0.46-0.09-0.59-0.4c-0.64-1.57-1.31-3.11-1.95-4.68   c-0.12-0.28-0.25-0.36-0.52-0.35c-1.18,0.03-2.35,0.05-3.53,0.03c-0.38-0.01-0.46,0.12-0.45,0.51c0.02,1.49,0,2.98,0.02,4.47   c0.01,0.34-0.08,0.46-0.39,0.42c-0.39-0.05-0.92,0.19-1.15-0.1c-0.19-0.24-0.07-0.8-0.07-1.22c0-4.43,0.01-8.85-0.01-13.28   c0-0.43,0.12-0.51,0.48-0.51c1.72,0.02,3.43-0.02,5.15,0.02c1.4,0.04,2.62,0.55,3.51,1.8c1.32,1.83,1.37,5.8-1.39,7.24   c-0.26,0.14-0.2,0.28-0.11,0.49c0.74,1.7,1.47,3.4,2.2,5.1C245.44,294.74,245.53,294.86,245.52,295.07 M237.14,284.87   c0,0.96,0.01,1.93-0.01,2.89c0,0.28,0.07,0.36,0.33,0.36c1.16-0.02,2.32,0.01,3.49-0.01c1.79-0.04,2.95-1.35,2.94-3.27   c-0.01-1.93-1.17-3.21-2.97-3.23c-1.13-0.01-2.27,0.01-3.4-0.01c-0.33-0.01-0.39,0.11-0.38,0.44   C237.15,282.98,237.14,283.93,237.14,284.87"/>
	<path class="st0" d="M358.82,287.56c-0.01,1.87-0.29,3.66-1.28,5.23c-2.36,3.75-7.53,3.31-9.35-0.79c-0.8-1.8-0.96-3.71-0.8-5.67   c0.12-1.44,0.47-2.81,1.23-4.02c2.36-3.72,7.52-3.28,9.34,0.78C358.59,284.51,358.82,286.01,358.82,287.56 M357.17,287.55   c0.01-1.19-0.13-2.38-0.61-3.49c-0.68-1.59-1.79-2.54-3.45-2.56c-1.69-0.02-2.82,0.93-3.51,2.53c-0.65,1.52-0.7,3.14-0.56,4.78   c0.08,0.93,0.3,1.84,0.73,2.66c0.72,1.37,1.79,2.14,3.27,2.15c1.49,0.01,2.59-0.74,3.32-2.13   C357,290.29,357.18,288.95,357.17,287.55"/>
	<path class="st0" d="M218.49,287.51c0-2.35,0.01-4.7-0.01-7.05c0-0.35,0.05-0.49,0.42-0.49c2.95,0.02,5.9,0.02,8.85,0   c0.34,0,0.44,0.11,0.4,0.45c-0.04,0.38,0.15,0.9-0.09,1.12c-0.2,0.19-0.66,0.07-1,0.07c-2.19,0-4.38,0.01-6.57-0.01   c-0.33,0-0.42,0.1-0.41,0.45c0.02,1.34,0.02,2.68,0,4.02c0,0.33,0.08,0.43,0.39,0.43c1.93-0.02,3.85,0,5.78-0.02   c0.33,0,0.45,0.1,0.41,0.45c-0.04,0.37,0.14,0.85-0.07,1.09c-0.21,0.24-0.66,0.07-1,0.07c-1.7,0.01-3.41,0.01-5.11,0   c-0.3,0-0.4,0.07-0.4,0.42c0.02,1.49,0.02,2.98,0,4.47c-0.01,0.36,0.09,0.45,0.42,0.45c2.45-0.01,4.9,0,7.36-0.02   c0.37,0,0.47,0.1,0.46,0.5c-0.02,1.14-0.01,1.14-1.05,1.14c-2.77,0-5.54-0.01-8.31,0.01c-0.4,0-0.47-0.14-0.47-0.53   C218.5,292.21,218.49,289.86,218.49,287.51"/>
	<path class="st0" d="M252.08,287.52c0-2.36,0.01-4.73-0.01-7.09c0-0.33,0.04-0.47,0.4-0.46c1.61,0.02,3.21-0.03,4.82,0.03   c1.61,0.06,2.97,0.7,3.81,2.29c1.47,2.79,0.22,6.38-2.51,7.23c-0.52,0.16-1.06,0.23-1.6,0.23c-0.97,0-1.94,0.02-2.91-0.01   c-0.34-0.01-0.41,0.11-0.4,0.46c0.02,1.49,0,2.98,0.01,4.47c0.01,0.34-0.08,0.46-0.39,0.42c-0.39-0.05-0.92,0.19-1.15-0.1   c-0.2-0.24-0.07-0.8-0.07-1.22C252.08,291.68,252.08,289.6,252.08,287.52 M253.69,284.84c0,0.95,0.02,1.9-0.01,2.85   c-0.01,0.37,0.11,0.46,0.42,0.44c0.36-0.03,0.72,0,1.08-0.01c0.84-0.03,1.69,0.08,2.53-0.09c1.42-0.28,2.35-1.55,2.35-3.2   c0-1.64-0.91-2.88-2.35-3.13c-1.26-0.22-2.54-0.05-3.81-0.09c-0.25-0.01-0.21,0.18-0.21,0.34   C253.68,282.91,253.69,283.87,253.69,284.84"/>
	<path class="st0" d="M334.48,293.43h1.15c1.61,0,3.21,0.01,4.82-0.01c0.28,0,0.41,0.06,0.38,0.4c-0.02,0.3-0.02,0.6,0,0.9   c0.02,0.28-0.08,0.39-0.33,0.35c-0.03,0-0.05,0-0.08,0c-2.7,0-5.4-0.01-8.1,0.01c-0.31,0-0.37-0.1-0.4-0.42   c-0.06-0.68,0.17-1.14,0.61-1.61c1.7-1.81,3.46-3.57,5.06-5.49c0.65-0.78,1.21-1.64,1.45-2.7c0.45-1.98-0.86-3.63-2.74-3.49   c-1.19,0.09-2.06,0.72-2.67,1.8c-0.15,0.26-0.26,0.28-0.49,0.15c-0.24-0.15-0.49-0.27-0.74-0.4c-0.16-0.08-0.23-0.14-0.13-0.37   c1.24-2.9,4.99-3.8,7.21-1.73c1.29,1.2,1.66,3.3,0.91,5.22c-0.49,1.26-1.3,2.27-2.17,3.23c-1.14,1.25-2.31,2.48-3.46,3.71   c-0.11,0.11-0.23,0.21-0.34,0.32C334.43,293.35,334.46,293.39,334.48,293.43"/>
	<path class="st0" d="M366.78,293.43c1.99,0,3.94,0.01,5.9-0.01c0.41-0.01,0.51,0.13,0.5,0.55c-0.03,1.1-0.01,1.1-1.02,1.1   c-2.49,0-4.99-0.01-7.48,0.01c-0.32,0-0.4-0.09-0.42-0.45c-0.04-0.65,0.15-1.11,0.59-1.57c1.71-1.81,3.46-3.57,5.06-5.49   c0.65-0.78,1.22-1.64,1.46-2.69c0.46-2.01-0.85-3.66-2.75-3.51c-1.18,0.1-2.03,0.71-2.64,1.78c-0.15,0.27-0.28,0.32-0.51,0.16   c-0.13-0.09-0.27-0.15-0.41-0.22c-0.59-0.31-0.59-0.31-0.26-0.9c1.26-2.28,3.96-3.15,6.17-1.97c1.93,1.03,2.67,3.5,1.75,5.85   c-0.49,1.24-1.29,2.24-2.14,3.19c-1.15,1.27-2.33,2.5-3.49,3.75C366.98,293.12,366.84,293.2,366.78,293.43"/>
	<path class="st0" d="M385.9,281.63h-0.94c-1.43,0-2.85-0.02-4.28,0.01c-0.38,0.01-0.49-0.12-0.45-0.51c0.03-0.25,0.02-0.51,0-0.77   c-0.03-0.32,0.08-0.4,0.37-0.4c1.95,0.01,3.9,0.01,5.86,0.01c0.36,0,0.72,0.01,1.08,0c0.21-0.01,0.32,0.06,0.29,0.3   c-0.01,0.04-0.01,0.09,0,0.13c0.13,0.86-0.17,1.5-0.72,2.12c-0.97,1.1-1.86,2.27-2.82,3.46c0.36,0.04,0.66,0.05,0.97,0.11   c2.14,0.38,3.54,2.42,3.36,4.77c-0.32,4.08-4.25,5.35-6.85,3.9c-0.91-0.51-1.61-1.25-2.14-2.2c-0.14-0.26-0.09-0.36,0.14-0.46   c0.32-0.14,0.63-0.44,0.94-0.44c0.32,0,0.41,0.5,0.63,0.76c0.96,1.12,2.13,1.54,3.5,1.18c1.83-0.48,2.77-3,1.79-4.75   c-0.52-0.92-1.37-1.22-2.28-1.38c-0.53-0.1-1.08-0.11-1.62-0.09c-0.21,0.01-0.28-0.07-0.3-0.3c-0.05-0.66,0.09-1.19,0.53-1.71   C383.95,284.2,384.87,282.96,385.9,281.63"/>
	<path class="st0" d="M199.77,279.98c0.54,0,1.03,0.02,1.51-0.01c0.26-0.01,0.28,0.18,0.35,0.36c1.39,3.88,2.77,7.76,4.15,11.64   c0.07,0.19,0.14,0.38,0.25,0.68c0.24-0.66,0.45-1.22,0.65-1.79c1.25-3.5,2.5-7,3.74-10.51c0.1-0.28,0.21-0.4,0.5-0.38   c0.44,0.03,0.88,0.01,1.37,0.01c-0.42,1.14-0.81,2.23-1.21,3.31c-1.39,3.78-2.78,7.56-4.17,11.34c-0.11,0.31-0.23,0.47-0.58,0.45   c-1.02-0.03-1.02-0.01-1.4-1.06c-1.67-4.53-3.33-9.07-5-13.6C199.89,280.3,199.84,280.18,199.77,279.98"/>
	<path class="st0" d="M175.6,287.54c0-2.38,0.01-4.76-0.01-7.14c0-0.34,0.07-0.46,0.39-0.42c0.39,0.05,0.92-0.19,1.15,0.1   c0.2,0.24,0.07,0.8,0.07,1.22c0,3.87,0.01,7.74-0.01,11.61c0,0.38,0.09,0.48,0.44,0.47c2.13-0.02,4.26,0,6.4-0.02   c0.3,0,0.43,0.06,0.4,0.42c-0.03,0.31-0.02,0.63,0,0.95c0.02,0.28-0.07,0.36-0.33,0.35c-1.29-0.01-2.58-0.01-3.86-0.01   c-1.43,0-2.85-0.01-4.28,0.01c-0.3,0-0.37-0.1-0.37-0.41C175.6,292.3,175.6,289.92,175.6,287.54"/>
	<path class="st0" d="M309.12,287.51c0-2.36,0.01-4.73-0.01-7.09c0-0.35,0.08-0.48,0.41-0.44c0.32,0.03,0.64,0.01,0.95,0   c0.18-0.01,0.26,0.06,0.24,0.26c-0.01,0.1,0,0.21,0,0.32c0,4.11,0.01,8.22-0.01,12.34c0,0.4,0.1,0.5,0.46,0.49   c2.12-0.02,4.24,0,6.36-0.02c0.31,0,0.46,0.07,0.42,0.44c-0.04,0.4,0.12,0.94-0.07,1.18c-0.22,0.28-0.73,0.09-1.11,0.09   c-2.41,0.01-4.82-0.01-7.23,0.01c-0.36,0-0.43-0.11-0.43-0.48C309.12,292.24,309.12,289.88,309.12,287.51"/>
	<path class="st0" d="M192.91,287.54c0,2.36-0.01,4.73,0.01,7.09c0,0.35-0.07,0.49-0.41,0.45c-0.38-0.05-0.88,0.17-1.12-0.08   c-0.25-0.25-0.08-0.8-0.08-1.21c-0.01-4.44,0-8.88-0.01-13.32c0-0.39,0.08-0.54,0.45-0.49c0.37,0.05,0.85-0.16,1.08,0.08   c0.24,0.24,0.07,0.77,0.07,1.17C192.91,283.33,192.91,285.43,192.91,287.54"/>
	<path class="st0" d="M302.91,255.86c1.05,0.01,2.1,0.01,3.15,0.02c2.28,3.17,4.86,6.11,6.91,9.45c0.27-3.16,0.07-6.33,0.17-9.49   c1.13,0.01,2.26,0.02,3.39,0.02c-0.07,5.2,0.07,10.4-0.08,15.59c-0.94-0.02-1.87-0.03-2.8-0.03c-2.57-3.11-4.78-6.52-7.42-9.57   c-0.04,3.2,0.01,6.39-0.04,9.59c-1.09-0.02-2.17-0.02-3.25-0.03C302.91,266.23,302.96,261.04,302.91,255.86"/>
	<path class="st0" d="M304.47,93.38c5.89-2.78,12.93-3.78,19.14-1.43c7.02,2.62,12.47,8.57,15.19,15.47   c3.59,9.18,3.43,19.58,0.42,28.89c-2.64,7.91-7.2,15.04-12.57,21.36c-8.54,10.14-18.93,18.45-28.6,27.43   c-4.67,4.52-9.55,9.25-11.86,15.47c-0.32,1.21-2.17,1.34-2.74,0.28c-4.08-5.37-10.29-8.4-15.77-12.08   c-9.38-5.83-18.63-12.62-24.54-22.15c-6.15-9.73-7.8-21.76-6.18-33c1.16-8.52,4.68-16.91,10.91-22.97   c4.49-4.33,10.23-7.75,16.54-8.33c7.49,0.11,15.74,3.47,19.29,10.42C288.68,104.56,295.63,97.31,304.47,93.38 M297.64,103.83   c-4.73,3.59-8.36,8.41-11.01,13.69c-0.54,1.73-0.72,3.64-2.12,4.97c-2.67,0.53-3.62-2.29-4.24-4.3c-1.69-5.49-7.07-9.7-12.87-9.64   c-5.68-0.47-10.35,3.61-13.71,7.72c-4.27,6.05-6.09,13.52-6.39,20.83c0.04,3.62-0.27,7.33,0.69,10.86c2.44-0.1,4.89-0.13,7.34,0   c-2.27,0.4-4.57,0.5-6.88,0.5c-0.09,3.02,1.45,5.75,2.62,8.44c5.27,10.57,14.53,18.3,23.65,25.45c3.15,2.66,6.66,5.08,8.93,8.62   c2.73-5.63,6.85-10.41,11.12-14.92c10.08-11.06,21.28-21.57,28.1-35.1l0.1-0.01c3.52-6.65,5.65-14.16,5.31-21.72   c-0.33-5.04-1.35-10.25-4.23-14.49c-1.99-3.05-5.07-5.51-8.71-6.17C308.99,97.03,302.55,99.95,297.64,103.83"/>
	<path class="st0" d="M414.88,91.06c1.76-0.99,4.02-0.04,5.35,1.3c4.89,4.68,8.83,10.8,9.7,17.63c0.4,3.02,0.03,6.57-2.44,8.67   c-3.59,3.3-9.97,2.11-12.34-2.09c-1.09-1.83-0.89-4.05-0.69-6.07c0.62-4.8,0.97-9.72,0.22-14.52   C414.49,94.41,413.21,92.22,414.88,91.06"/>
	<path class="st0" d="M49.24,122.34c8.36-12.32,23.04-20.12,37.94-20c2.62,0.05,5.52,0.47,7.31,2.59c2.04,2.09,2.24,5.77,0.24,7.96   c-1.43,1.67-3.66,2.35-5.79,2.52c-11.23,1.23-22.49,4.99-31.2,12.39c-3.25,2.97-6.5,6.18-8.35,10.25   c-0.43,0.69-0.18,1.46,0.02,2.18c11.22-0.95,22.41-2.21,33.66-2.76c3.02-0.14,6.79-0.32,8.75,2.48c2.03,3.01-0.07,7.27-3.35,8.3   c-14.07,4.02-27.57,11.88-36.09,24.02c-2.52,3.92-4.94,8.67-3.64,13.44c0.84,3.93,4.52,6.75,8.42,7.19   c5.7,0.6,11.38-1.03,16.5-3.41c9.34-4.53,17.49-11.28,24.35-19.02c0.56-0.55,1.24-0.95,1.88-1.39c0.66,0.53,1.54,1.09,1.33,2.09   c-0.08,6.18-2.69,12.09-6.37,16.97c-7.2,9.43-18.88,15.5-30.81,15.26c-3.74,0.1-7.51-0.62-10.85-2.33   c-5.99-2.89-10.25-8.88-11.37-15.4c-0.43-4.51-0.26-9.16,1.36-13.44c3.47-9.69,10.3-17.82,17.99-24.49   c-4.42,0.06-8.85,0.23-13.27,0.23c-2.51,0.25-4.9-2.03-4.85-4.54C42.71,135.98,45.09,128.52,49.24,122.34"/>
	<path class="st0" d="M131.24,126.12c-0.12-1.19,0.73-2.06,1.61-2.7c2.52,1.87,3.67,4.94,4.97,7.68   c7.53,17.21,5.48,38.02-4.78,53.68c-2.2,3.1-4.74,6.18-8.21,7.89c-4.71,2.11-10.39-0.3-13.28-4.31   c-4.63-6.25-5.92-14.21-6.71-21.76c-0.64-11.79-0.26-23.83,3.19-35.2c0.79-2.5,1.95-5.31,4.56-6.39c3.14-1.39,7.02,0.82,7.83,4.04   c0.5,3.71-0.4,7.41-1.14,11.03c-1.83,8.97-4.29,17.89-4.62,27.08c-0.03,3.4-0.12,7.37,2.48,9.94c1.06,1.25,3.07,0.99,4.14-0.12   c3.02-2.83,4.63-6.8,5.94-10.64C131.26,153.37,131.54,139.59,131.24,126.12"/>
	<path class="st0" d="M349.06,124.64c2.48-0.38,4.63,1.55,5.81,3.55c2.91,5.13,2.87,11.29,2.31,16.98   c-1.32,10.47-5.15,20.39-8.98,30.15c-2.05,5.32-4.48,10.52-5.88,16.06c-0.2,1.03-0.94,2.33-2.19,2.05   c-0.9,0.09-1.35-0.89-1.79-1.49c-1.83-3.52-1.98-7.56-2.25-11.43c-0.48-11.47,3.76-22.35,7.27-33.07   c2.14-6.95,4.71-13.97,4.66-21.35C347.96,125.46,348.36,124.67,349.06,124.64"/>
	<path class="st0" d="M410.32,125.46c2.78-1.45,6.33-1.08,8.79,0.85c3.96,2.92,5.84,7.85,6.41,12.59c1.18,8.05-1.3,15.98-3.35,23.67   c-2.65,9.84-6.33,19.43-7.9,29.54c-0.3,1.09-1.42,1.61-2.47,1.26c-2.55-2.22-3.76-5.58-4.24-8.84c-0.58-4.63-0.91-9.35-0.2-13.97   c1.65-12.47,5.49-24.77,4.8-37.46C412.2,130.4,410.93,128.01,410.32,125.46"/>
	<path class="st0" d="M444.7,125.6c0.38-1.1,1.72-1.17,2.67-0.84c1.82,0.58,3.31,1.84,4.86,2.92c3.01-2.15,7.23-2.22,10.43-0.45   c1.4,0.68,1.26,2.49,0.69,3.69c-0.99,1.9-2.52,3.42-3.9,5.03c6.39,8.39,11.55,18.06,13.15,28.59c0.74,5.76,0.44,11.87-2.19,17.14   c-2.9,5.92-8.67,10.47-15.23,11.49c-6.15,1.13-12.7-0.98-17.16-5.34c-5.09-4.93-7.33-12.05-7.89-18.96   c-0.64-9.02,1.49-18.2,5.8-26.13c2.41-4.39,5.59-8.43,9.64-11.43C444.86,129.52,443.95,127.49,444.7,125.6 M454.22,140.66   c-3.55,4.73-6.66,9.81-9.01,15.23c-2.18,5.34-3.78,11.17-2.96,16.97c0.61,3.89,2.24,7.95,5.66,10.18c2.66,1.75,6.25,1.48,8.84-0.27   c4.45-3,6.76-8.27,7.58-13.43c1.07-6.45-1.15-12.86-3.76-18.68C458.77,147.17,457.05,143.48,454.22,140.66"/>
	<path class="st0" d="M493.6,125.28c1-0.68,2.21-0.65,3.37-0.57c0.21,2.55-0.16,5.08-0.35,7.62c4.42-2.59,9.79-4.07,14.89-2.95   c7.54,2.04,13.31,9.65,12.83,17.53c0.34,13.32-1.95,26.56-1.24,39.88c0.08,2.39,0.74,4.75,0.5,7.15c-1.05,0.13-2.32,0.62-3.17-0.25   c-4.71-4.24-6.49-10.65-7.73-16.64c-1.58-8.55-1.83-17.27-1.9-25.95c-0.04-2.4-0.35-5.03-2.09-6.83   c-2.88-3.18-7.94-3.42-11.62-1.56c-1.01,0.55-2.22,1.3-2.29,2.58c-1.87,12.66-2.52,25.55-5.78,37.97   c-1.01,3.22-1.89,6.58-3.66,9.48c-1.1,1.37-3.4,0.46-3.35-1.25c-2.93-10.76-2.75-22-2.19-33.04c0.56-6.46,1.43-12.96,3.54-19.11   C485.31,133.83,488.38,128.27,493.6,125.28"/>
	<path class="st0" d="M157.9,127.63c7.19-2.15,14.76-3.62,22.29-2.8c5.4,0.77,11.25,3.53,13.36,8.9c1.68,3.92,0.34,8.45-2.15,11.71   c-5.78,7.46-15.06,11.61-24.27,12.74c10.01,8.92,16.19,21.05,23.11,32.31c0.97,1.72,2.32,3.22,3.14,5.03   c0.43,1.41-0.96,2.28-2.22,2.03c-5.75-1.14-9.93-5.64-13.56-9.92c-5.92-7.05-11.09-14.71-17.17-21.62   c-0.4,5.04-1.06,10.06-2.21,14.99c-0.95,3.85-2.16,7.78-4.69,10.91c-0.72,0.83-1.6,1.84-2.82,1.46c-1.14-1.58-0.67-3.59-0.75-5.4   c0.46-9.84,0.7-19.7,1.57-29.52c-1.29-1.44-2.94-2.55-4.11-4.08c0.05-0.32,0.14-0.96,0.2-1.28c1.51-0.11,3.03-0.13,4.55-0.09   c0.57-4.48,1.43-8.92,2.42-13.32c-2.49,0.67-5.32-0.7-6.05-3.21c-0.85-2,0.1-4.36,1.85-5.52   C152.64,129.37,155.32,128.54,157.9,127.63 M162.69,137.96c-0.11,4.42-0.74,8.8-0.91,13.22c8.22-0.23,17.01-2.96,22.44-9.45   c1.1-1.51,2.53-3.28,2.03-5.28c-1.57-2-4.43-1.88-6.72-1.79C173.85,135.36,168.21,136.47,162.69,137.96"/>
	<path class="st0" d="M212.47,125.6c2.98-1.23,7.07-1.38,9.34,1.27c1.7,2.35-0.2,5.08-1.23,7.28c6.12,8.27,10.95,17.7,12.9,27.86   c1.27,6.97,0.98,14.5-2.34,20.88c-2.44,4.87-6.86,8.9-12.25,10.13c-5.65,1.39-11.87-0.55-15.92-4.68   c-4.64-4.39-6.74-10.72-7.87-16.84c-1.88-11.41,0.25-23.37,5.57-33.6C203.4,132.89,207.03,127.86,212.47,125.6 M216.86,138.98   c-6.52,9.1-11.26,20.28-9.86,31.69c0.58,3.67,1.77,7.59,4.71,10.07c2.21,1.93,5.74,1.91,7.99,0.06c4.55-3.47,6.31-9.37,6.91-14.84   c0.91-9.24-3.24-18.03-8.25-25.51C217.9,139.93,217.67,139,216.86,138.98"/>
	<path class="st0" d="M368.83,130.51c5.08-4.09,11.79-5.43,18.16-5.82c2.73-0.05,5.97-0.64,8.13,1.48c3,2.47,2.89,7.84-0.48,9.94   c-2.6,1.8-5.88,1.08-8.82,1.4c-3.68,0.35-7.5,0.9-10.7,2.88c-1.6,1.05-3.14,2.76-2.87,4.82c0.12,2.66,2.3,4.65,4.64,5.57   c5.4,2.2,11.35,1.87,17.03,2.56c3.67,0.47,7.12,3.01,8.16,6.64c0.58,2.67,0.48,5.63-0.95,8.04c-2.48,4.22-6.55,7.19-10.58,9.8   c-10.86,6.79-22.58,12.14-33.32,19.13c-0.81,0.58-2.22,0.97-2.9,0c-1.01-1.04-0.34-2.62,0.28-3.68   c4.44-8.01,11.7-13.96,19.13-19.07c4.92-3.38,10.06-6.46,14.97-9.86c1.25-0.98,2.87-1.84,3.19-3.55   c-6.22-1.89-12.96-1.55-19.06-3.92c-4.1-1.61-7.75-4.84-9.1-9.11C361.92,141.67,363.81,134.49,368.83,130.51"/>
	<path class="st0" d="M160.76,218.39c4.25-0.68,8.97,0.33,12.06,3.47c5.29,4.89,5.11,14.38-0.38,19.07   c-6.14,5.78-17.71,3.96-21.18-3.94c-2.07-4.32-1.57-9.75,1.32-13.59C154.54,220.76,157.55,219,160.76,218.39 M160.65,223.91   c-4.95,1.73-6.16,8.68-2.98,12.51c2.28,2.9,6.83,3.54,9.86,1.45c3.62-2.36,4.33-7.85,1.87-11.28   C167.58,223.78,163.72,222.66,160.65,223.91"/>
	<path class="st0" d="M129.58,219.37c3.27-1.65,7.25-1.36,10.59-0.07c1.33,0.61,2.82,1.15,3.68,2.41c-1.04,1.31-1.96,2.71-2.92,4.08   c-2.3-1.68-5.21-3.09-8.11-2.28c-1.47,0.38-2.27,2.45-0.9,3.45c3.05,1.94,7.02,1.72,9.98,3.88c2.95,1.89,3.34,6.13,1.91,9.09   c-0.95,2.15-3.11,3.5-5.34,3.97c-4.85,1.01-10.27-0.31-13.81-3.85c1.17-1.26,2.26-2.6,3.36-3.94c2.53,2.29,6.18,3.88,9.59,2.8   c1.51-0.49,1.97-2.9,0.49-3.68c-3.31-1.98-7.73-1.61-10.6-4.42C124.24,227.59,125.49,221.32,129.58,219.37"/>
	<path class="st0" d="M183.3,218.67c1.76-0.01,3.53,0,5.29,0.05c3.86,5.03,7.56,10.19,11.51,15.15c0.06-5.07,0.01-10.15,0.04-15.22   c1.87,0,3.73,0,5.6,0.1c-0.06,8.34-0.05,16.68,0,25.01c-1.66,0.04-3.37,0.3-5.01-0.07c-3.97-5.12-7.74-10.4-11.77-15.47   c0.03,5.17-0.37,10.34,0.02,15.5c-1.89,0.14-3.79,0.16-5.68,0.13C183.3,235.46,183.3,227.06,183.3,218.67"/>
	<path class="st0" d="M216.87,221.19c5.17-4.26,13.58-4.02,18.49,0.53c-1.2,1.41-2.37,2.87-3.61,4.25   c-2.73-2.67-7.52-3.64-10.63-1.1c-3.75,2.88-4.07,9.08-0.58,12.29c2.69,2.71,7.13,2.44,10.24,0.61c-0.02-1.25-0.04-2.49-0.04-3.73   c-1.8,0.01-3.6,0.02-5.4,0.01c-0.02-1.6-0.02-3.21-0.04-4.8c3.67,0.04,7.34-0.02,11.01,0.04c-0.02,3.59-0.09,7.19,0.03,10.79   c-5.33,5.18-15.02,5.96-20.43,0.51C210.67,235.42,211.15,225.83,216.87,221.19"/>
	<path class="st0" d="M263.56,218.81c4.76-1.4,10.34-0.52,13.97,3.03c-0.53,1.69-2.24,2.85-3.24,4.33c-2.62-2.08-6.2-3.76-9.47-2.11   c-5.39,2.4-5.69,10.99-0.73,14c3.32,2.1,7.7,0.79,10.21-1.96c1.26,1.21,2.5,2.44,3.6,3.8c-4.96,5.72-14.89,6.01-19.92,0.26   c-3.15-3.34-3.78-8.28-2.81-12.61C256.25,223.45,259.49,220.04,263.56,218.81"/>
	<path class="st0" d="M291.25,218.82c4.86-1.48,10.63-0.38,14.12,3.46c4.79,4.89,4.62,13.62-0.38,18.29   c-5.89,6.01-17.49,4.66-21.29-3.04C279.72,230.7,283.58,220.9,291.25,218.82 M292.9,223.85c-4.04,1.44-5.95,6.53-4.33,10.39   c1.28,3.7,5.68,5.79,9.36,4.49c4.54-1.46,6.41-7.44,4.04-11.44C300.37,224.05,296.24,222.59,292.9,223.85"/>
	<path class="st0" d="M315.53,218.67c1.74,0.08,3.57-0.24,5.27,0.19c3.89,4.99,7.59,10.14,11.51,15.11   c-0.01-5.09,0-10.18-0.01-15.26c1.82-0.04,3.63-0.04,5.46-0.02c0.04,8.39,0.01,16.77,0.01,25.15c-1.62,0.02-3.24,0.02-4.86-0.01   c-3.93-5.24-7.81-10.52-11.88-15.64c-0.11,5.22-0.04,10.43-0.03,15.65c-1.83,0.02-3.66,0.03-5.48,0.04   C315.51,235.47,315.51,227.07,315.53,218.67"/>
	<path class="st0" d="M343.81,218.7c6.94-0.02,13.89-0.04,20.84,0c-0.02,1.74-0.02,3.5-0.04,5.24c-2.5-0.03-4.99,0.02-7.49-0.06   c-0.06,0.39-0.17,1.19-0.23,1.59c0.29,6.1,0.02,12.21,0.14,18.32c-1.87,0.07-3.74,0.07-5.61,0.12c-0.01-6.66,0.01-13.32-0.01-19.98   c-2.53,0-5.06-0.01-7.59,0.02C343.8,222.19,343.8,220.44,343.81,218.7"/>
	<path class="st0" d="M370.46,218.75c6.34-0.16,12.69-0.01,19.03-0.09c-0.03,1.64-0.02,3.26,0.04,4.9   c-4.47,0.11-8.94,0.06-13.41,0.04c-0.02,1.7-0.03,3.41-0.03,5.12c3.92-0.05,7.85-0.02,11.77-0.02c-0.04,1.66-0.03,3.32-0.05,4.99   c-3.91-0.02-7.82,0.01-11.73-0.02c0.02,1.74,0.01,3.48,0.02,5.22c4.51-0.02,9.03-0.02,13.55,0c-0.02,1.66-0.02,3.32,0,4.97   c-6.39-0.05-12.78,0.05-19.17-0.05C370.53,235.46,370.56,227.1,370.46,218.75"/>
	<path class="st0" d="M399.36,219.43c4.66-2.35,10.41-1.02,14.45,2c-1,1.45-1.99,2.9-3.01,4.35c-2.37-1.63-5.29-3.13-8.23-2.24   c-1.63,0.43-1.98,2.89-0.44,3.69c3.4,1.72,7.66,1.64,10.56,4.35c3.35,3.44,1.87,10.06-2.65,11.76c-5.19,1.98-11.6,0.65-15.52-3.31   c1.17-1.25,2.28-2.57,3.37-3.9c2.11,1.81,4.76,3.22,7.61,3.12c1.14-0.03,2.48-0.28,3.14-1.33c0.31-0.72,0.07-1.51,0.09-2.26   c-3.39-2.3-7.95-1.92-11.13-4.6C394.13,227.93,395.19,221.45,399.36,219.43"/>
	<path class="st0" d="M418.63,218.69c6.94-0.03,13.88,0.01,20.82-0.02c0.03,1.77,0.03,3.54-0.06,5.31   c-2.52-0.09-5.04-0.07-7.56-0.04c0.04,6.64,0.04,13.29,0.01,19.93c-1.86-0.02-3.71-0.01-5.57-0.01   c-0.17-6.65-0.01-13.31-0.07-19.96c-2.52,0.02-5.03,0.01-7.54,0.03C418.62,222.18,418.62,220.43,418.63,218.69"/>
	<path class="st0" d="M323.41,257.31c3.24-2.71,8.4-2.5,11.48,0.36c-0.76,0.86-1.5,1.73-2.23,2.61c-1.6-1.19-3.74-2.23-5.69-1.22   c-3.33,1.47-3.71,6.75-0.57,8.62c1.69,1.16,3.76,0.64,5.53,0c-0.01-0.81-0.02-1.61-0.03-2.41c-1.15-0.01-2.28-0.01-3.42-0.02   c0.02-1,0.03-1.99,0.04-2.98c2.26,0,4.52,0.01,6.78-0.03c0.01,2.32-0.01,4.64,0.03,6.96c-3.26,2.64-8.3,3.3-11.79,0.74   C319.68,266.97,319.64,260.39,323.41,257.31"/>
	<path class="st0" d="M170.98,255.72c1.17,0.02,2.34,0.05,3.52,0.09c0.05,3.36-0.23,6.74,0.13,10.09c0.43,3.14,5.59,3.09,6.24,0.09   c0.25-3.41,0.04-6.83,0.1-10.25c1.17-0.01,2.35,0.01,3.52,0.02c-0.08,3.39,0.12,6.8-0.12,10.19c-0.22,2.2-1.57,4.37-3.72,5.11   c-3.49,1.24-8.6,0.19-9.41-3.98C170.77,263.33,170.88,259.51,170.98,255.72"/>
	<path class="st0" d="M189.49,255.76c1.05,0.01,2.1,0.01,3.15,0.02c2.28,3.17,4.87,6.11,6.91,9.44c0.27-3.16,0.07-6.33,0.17-9.49   c1.13,0.01,2.26,0.02,3.39,0.02c-0.07,5.2,0.07,10.4-0.08,15.59c-0.94-0.02-1.87-0.03-2.8-0.03c-2.57-3.11-4.78-6.52-7.42-9.57   c-0.05,3.2,0.01,6.39-0.04,9.59c-1.09-0.02-2.17-0.02-3.25-0.03C189.49,266.13,189.54,260.94,189.49,255.76"/>
	<path class="st0" d="M208.37,255.81c1.22-0.04,2.45-0.05,3.69-0.02c-0.04,5.18,0.01,10.35-0.02,15.52h-3.65   C208.38,266.14,208.41,260.97,208.37,255.81"/>
	<path class="st0" d="M216.18,255.76c4.27-0.01,8.54-0.02,12.81,0.01c0.01,1.06,0.02,2.11,0.03,3.18c-1.57,0.13-3.14,0.16-4.7,0.14   c0.02,4.08,0.02,8.16,0.01,12.24c-1.15-0.02-2.3-0.02-3.45-0.01c-0.09-4.08-0.05-8.16-0.02-12.24c-1.55-0.01-3.1-0.02-4.64-0.06   C216.2,257.94,216.19,256.85,216.18,255.76"/>
	<path class="st0" d="M233.1,255.77c3.89-0.03,7.77-0.01,11.67-0.01c-0.01,1.03-0.01,2.07,0.01,3.11c-2.76,0.01-5.51-0.02-8.26-0.01   c-0.01,1.03,0,2.07,0.01,3.11c2.45,0.01,4.9-0.05,7.34,0.07c-0.02,0.99-0.04,1.98-0.04,2.98c-2.45,0.03-4.89,0.03-7.34,0.02   c0.01,1.02,0.01,2.03,0.01,3.06c2.75,0.03,5.5,0.05,8.25-0.01c0.12,1.06,0.2,2.13,0.24,3.2c-3.95,0.05-7.9-0.03-11.85,0.04   C233.08,266.15,233.16,260.96,233.1,255.77"/>
	<path class="st0" d="M249.32,255.78c3.92,0.2,8.55-0.99,11.76,1.95c3.71,3.05,3.27,9.53-0.71,12.15   c-3.25,2.18-7.34,1.24-11.01,1.43C249.32,266.13,249.38,260.96,249.32,255.78 M252.79,258.84c0,3.1,0.02,6.2-0.03,9.29   c1.96-0.04,4.27,0.32,5.82-1.2c2-1.82,1.84-5.27-0.14-7.03C256.83,258.65,254.7,258.84,252.79,258.84"/>
	<path class="st0" d="M293.85,255.81c1.24-0.03,2.48-0.04,3.72-0.02c-0.03,5.16-0.03,10.34,0,15.5c-1.13,0.02-2.25,0.05-3.37,0.11   C293.43,266.26,294.1,260.99,293.85,255.81"/>
	<path class="st0" d="M339.98,255.77c3.85,0.24,8.34-0.96,11.57,1.76c3.93,2.97,3.62,9.68-0.47,12.37   c-3.28,2.16-7.39,1.21-11.07,1.41C339.99,266.13,340.03,260.95,339.98,255.77 M343.41,259.21c0.17,2.95,0.07,5.92,0.06,8.88   c1.85,0.02,4.01,0.36,5.54-0.94c2.53-1.87,2.17-6.35-0.66-7.75C346.81,258.75,344.99,258.58,343.41,259.21"/>
	<path class="st0" d="M362.98,255.94c3.36-1.32,7.59-0.16,9.67,2.84c2.24,3.07,1.93,7.84-0.9,10.44   c-3.43,3.56-10.14,3.01-12.78-1.25C356.15,263.88,358.13,257.43,362.98,255.94 M363.98,259.16c-1.9,0.85-2.95,3.04-2.62,5.07   c0.26,2.89,3.66,5.03,6.34,3.73c2.54-0.93,3.51-4.29,2.29-6.6C369.04,259.17,366.12,257.93,363.98,259.16"/>
	<path class="st0" d="M377.82,255.74c1.25,0.01,2.5,0.02,3.75,0.05c1.21,2.12,2.55,4.17,3.76,6.28c1.62-1.92,2.64-4.23,4.12-6.24   c1.22-0.14,2.45-0.07,3.69-0.06c-0.03,5.19,0.04,10.38-0.03,15.57c-1.15-0.02-2.3-0.03-3.44-0.04c0.02-3.06,0.02-6.12,0.01-9.18   c0.09-0.2,0.27-0.6,0.35-0.8c-2.02,1.76-2.7,4.71-4.76,6.34c-1.47-1.92-2.54-4.12-4.12-5.95c-0.11,3.21,0,6.42-0.06,9.63   c-1.08-0.01-2.15-0.02-3.23,0C377.8,266.14,377.87,260.94,377.82,255.74"/>
	<path class="st0" d="M276.31,271.32c-0.09-5.19-0.01-10.37-0.05-15.56c1.18,0,2.37,0,3.56,0.01c-0.03,2.18-0.05,4.36,0.01,6.54   c1.99-2.17,3.98-4.33,5.92-6.53c1.4-0.02,2.8-0.03,4.21,0.01c-1.93,2.33-4.14,4.41-6.21,6.61c2.36,2.85,4.38,5.96,6.64,8.88   c-1.39,0.02-2.77,0.04-4.14,0.07c-1.69-2.12-3.17-4.41-4.85-6.53c-0.53,0.51-1.06,1.03-1.58,1.56c-0.04,1.65-0.04,3.3-0.04,4.96   C278.63,271.32,277.47,271.31,276.31,271.32"/>
	<path class="st1" d="M297.64,103.83c4.92-3.88,11.35-6.8,17.71-5.27c3.63,0.66,6.72,3.12,8.71,6.17c2.88,4.24,3.89,9.45,4.23,14.49   c0.34,7.56-1.8,15.07-5.31,21.72l-0.1,0.01c-5.24,0.21-10.39,1.26-15.62,1.56c-1.18,0.06-2.35,0.2-3.48,0.48   c-16.16,1.49-32.28,3.52-48.44,4.97c-2.45-0.13-4.9-0.1-7.34,0c-0.95-3.54-0.65-7.24-0.69-10.86c0.3-7.31,2.12-14.78,6.39-20.83   c3.36-4.11,8.03-8.19,13.71-7.72c5.8-0.06,11.18,4.15,12.87,9.64c0.62,2.02,1.57,4.83,4.24,4.3c1.4-1.33,1.58-3.24,2.12-4.97   C289.27,112.24,292.91,107.42,297.64,103.83"/>
	<path class="st2" d="M307.25,142.51c5.23-0.3,10.38-1.35,15.62-1.56c-6.82,13.53-18.02,24.04-28.1,35.1   c-4.27,4.51-8.39,9.3-11.12,14.92c-2.27-3.53-5.77-5.95-8.92-8.62c-9.12-7.16-18.39-14.89-23.66-25.45   c-1.17-2.69-2.71-5.42-2.62-8.44c2.31,0.01,4.61-0.09,6.88-0.5c16.16-1.44,32.27-3.48,48.44-4.97   C304.91,142.71,306.07,142.57,307.25,142.51"/>
</g>
</svg>